<?xml version="1.0" encoding="UTF-8"?>
<svg width="250px" height="53px" viewBox="0 0 250 53" version="1.1" xmlns="http://www.w3.org/2000/svg" xmlns:xlink="http://www.w3.org/1999/xlink">
    <title>unison-logo</title>
    <g id="Design" stroke="none" stroke-width="1" fill="none" fill-rule="evenodd">
        <g id="unison-logo" fill="#FFFFFF">
            <path d="M29.0390009,18.8797749 C29.0390009,16.6466803 28.1022737,15.1576261 26.6186632,14.6612747 C25.1355119,14.1649233 24.5890877,14.1649233 23.8860832,14.1649233 L33.8006972,14.1649233 L33.8006972,43.7805563 C33.8006972,46.5114622 35.2057879,46.6759395 36.1425151,46.6759395 L36.6108787,46.6759395 L29.0390009,52.3012552 L29.0390009,46.5114622 L29.0390009,18.8797749 Z M21.3881441,47.9168179 C24.0431227,46.8418765 26.462542,45.3523357 28.5701781,43.450142 C26.6186632,45.8491738 24.1207241,47.9168179 21.1544215,49.8204715 C18.1105174,51.7226652 15.1432964,52.4676789 12.2555136,52.2190166 C8.74278674,52.2190166 6.94693386,49.6540478 6.0882673,47.3377413 C5.46378253,46.0141376 5.30812052,42.6228897 5.30812052,41.0506237 C5.22960075,40.3065832 5.22960075,39.0652181 5.22960075,37.3284749 L5.22960075,36.0043845 L5.22960075,19.045712 C5.22960075,16.8116441 4.21435382,15.3225899 2.73166168,14.7439999 C1.24896953,14.1649233 0.702086183,14.1649233 0,14.1649233 L10.0693577,14.1649233 L10.0693577,19.045712 L10.0693577,35.094407 C10.0693577,37.5766506 10.0693577,39.3138804 10.1474183,40.3888218 C10.2254789,41.4647365 10.3820593,42.7878536 10.616241,44.1951557 C11.162206,47.0900522 12.4116347,48.2482055 14.5973314,48.8272821 C16.392266,49.3231469 18.6564824,48.992246 21.3881441,47.9168179 L21.3881441,47.9168179 Z" id="Fill-1"></path>
            <path d="M82.6058797,46.4044001 C82.6058797,48.6040661 83.6268933,50.0708296 85.1180073,50.641717 C86.6100449,51.2116457 87.1600347,51.2116457 87.8661088,51.2116457 L72.5573689,51.2116457 C73.2643666,51.2116457 73.8134328,51.2116457 75.3050086,50.641717 C76.7970462,50.0708296 77.7390941,48.6040661 77.7390941,46.4044001 L77.7390941,30.4324953 L77.7390941,29.209713 C77.7390941,26.2761859 77.8175981,25.4613172 77.5816243,23.2616512 C77.5035821,22.2018426 77.3465741,21.386974 77.1895661,20.8160866 C76.483492,18.9423681 75.4624784,17.3126308 73.0288547,16.8237096 C69.4957133,15.8458672 63.7644603,18.2904731 59.4472026,22.2018426 C61.5663486,19.7572367 64.000434,17.6385782 66.8265777,15.7648597 C69.6527213,13.97119 72.478865,13.2382875 75.3835126,13.4827481 C79.0736619,13.4827481 80.8797155,16.0903278 81.7427976,18.1274994 C82.3708295,19.4312892 82.5278375,22.9357038 82.6058797,24.2394936 L82.6058797,27.9059232 L82.6058797,29.5356604 L82.6058797,46.4044001 Z M59.1331866,46.4044001 C59.1331866,48.6040661 60.1542003,50.0708296 61.6453143,50.641717 C63.1364284,51.2116457 63.6864181,51.2116457 64.3924922,51.2116457 L49.1631799,51.2116457 C49.869254,51.2116457 50.4192438,51.2116457 51.9103578,50.641717 C53.4019336,50.0708296 54.3439815,48.6040661 54.3439815,46.4044001 L54.3439815,22.3648164 C54.3439815,18.8604019 51.8318538,18.5344544 51.2823259,18.7793943 L59.1331866,13.0753138 L59.1331866,46.4044001 Z" id="Fill-3"></path>
            <path d="M102.568568,3.48033685 C102.568568,1.57492554 104.089999,0 105.931632,0 C107.612222,0 109.133654,1.57492554 109.133654,3.48033685 C109.133654,5.38623561 107.612222,6.96116115 105.931632,6.96116115 C104.089999,6.96116115 102.568568,5.38623561 102.568568,3.48033685 L102.568568,3.48033685 Z M108.652409,46.3230886 C108.652409,48.5599605 109.613015,50.0515335 111.134446,50.632077 C112.655877,51.2116457 113.296282,51.2116457 114.016736,51.2116457 L98.3263598,51.2116457 C99.0463438,51.2116457 99.6867481,51.2116457 101.208179,50.632077 C102.72961,50.0515335 103.769796,48.5599605 103.769796,46.3230886 L103.769796,22.2083512 C103.769796,18.8937447 102.488988,17.6502798 100.887977,17.8993627 L108.652409,12.3469093 L108.652409,46.3230886 Z" id="Fill-5"></path>
            <path d="M150.492145,23.7458112 C147.55039,17.5917247 142.142594,13.8172183 136.735266,14.0638644 C133.156887,14.3095452 130.61273,16.1147439 130.055626,19.3974061 C129.498521,22.0231496 129.816599,26.864847 139.597969,29.1623726 C149.379339,31.4598983 152.718691,34.9052214 152.718691,40.4854091 C152.798679,46.9677136 147.94752,52.3012552 139.597969,52.3012552 C134.508719,52.3012552 130.691782,50.9883834 128.704261,49.9221578 C127.431481,49.2657219 125.841558,48.1169591 125.761571,48.1169591 L125.523013,37.8591829 C127.351494,42.537254 129.816599,45.9830598 132.997381,48.0344219 C138.722787,52.2196834 149.061261,52.1381116 149.458858,45.2455347 C150.094547,40.3222655 147.152792,36.7113854 138.166618,34.4954316 C129.658496,32.2794778 126.795793,29.1623726 126.715805,23.9924573 C126.715805,17.8378881 131.486977,12.9966734 139.757008,13.0792106 C144.290089,12.9966734 147.868468,14.227008 150.492145,16.6070708 L150.492145,23.7458112 Z" id="Fill-7"></path>
            <path d="M188.931668,16.7910907 C185.549839,13.9077541 181.773796,13.2488165 177.448535,14.8142779 C173.908003,16.0502704 171.470069,18.6860208 170.289738,22.7215292 C169.031211,26.757522 168.873895,31.2058354 169.81779,35.9007659 C170.840806,41.3374856 172.884987,45.2911113 175.874914,47.6797601 C178.863452,50.1502916 182.08889,51.3044015 185.628497,51.1386981 C189.875563,50.8915965 192.786369,48.5857993 194.438649,44.2198532 C196.090465,39.8543915 196.326439,34.747625 195.303423,28.7343349 C194.438649,23.6280529 192.314884,19.6744272 188.931668,16.7910907 M173.514713,49.9860418 C169.4245,48.1734788 166.042209,43.8898998 164.783682,37.7128443 C163.604276,32.1947263 164.311735,27.2522097 166.750593,22.8038964 C169.188527,18.356552 172.806791,15.3913328 177.683583,13.9906059 C183.426538,12.3432618 188.538841,12.9193477 192.943685,15.7208016 C197.348529,18.5203174 199.944241,23.2157324 200.652625,29.805593 C201.360547,35.9826485 200.023362,41.1722667 196.719266,45.4558457 C193.336975,49.8203383 189.168104,52.0452218 184.055801,52.2928079 C180.829901,52.3746906 177.604925,51.8800029 173.514713,49.9860418" id="Fill-9"></path>
            <path d="M244.740358,46.4044001 C244.740358,48.6040661 245.760424,50.0708296 247.252426,50.641717 C248.743504,51.2116457 249.292557,51.2116457 250,51.2116457 L234.691625,51.2116457 C235.398145,51.2116457 235.948121,51.2116457 237.438738,50.641717 C238.930278,50.0708296 239.872303,48.6040661 239.872303,46.4044001 L239.872303,30.4324953 L239.872303,29.209713 C239.872303,26.2761859 239.951267,25.4613172 239.716223,23.2616512 C239.637259,22.2018426 239.480255,21.386974 239.32325,20.8160866 C238.61627,18.9423681 237.596204,17.3126308 235.162176,16.8237096 C231.629581,15.8458672 225.899388,18.2904731 221.58131,22.2018426 C223.701329,19.7572367 226.134433,17.6385782 228.960509,15.7648597 C231.786585,13.97119 234.612662,13.2382875 237.517702,13.4827481 C241.207301,13.4827481 243.01285,16.0903278 243.876373,18.1274994 C244.50439,19.4312892 244.661394,22.9357038 244.740358,24.2394936 L244.740358,27.9059232 L244.740358,29.5356604 L244.740358,46.4044001 Z M221.267302,46.4044001 C221.267302,48.6040661 222.287367,50.0708296 223.779369,50.641717 C225.271371,51.2116457 225.820424,51.2116457 226.527867,51.2116457 L211.297071,51.2116457 C212.00359,51.2116457 212.553105,51.2116457 214.044645,50.641717 C215.537109,50.0708296 216.479134,48.6040661 216.479134,46.4044001 L216.479134,22.3648164 C216.479134,18.8604019 213.966605,18.5344544 213.41709,18.7793943 L221.267302,13.0753138 L221.267302,46.4044001 Z" id="Fill-11"></path>
        </g>
    </g>
</svg>