<?xml version="1.0" encoding="UTF-8"?>
<svg width="134px" height="134px" viewBox="0 0 134 134" version="1.1" xmlns="http://www.w3.org/2000/svg" xmlns:xlink="http://www.w3.org/1999/xlink">
    <title>Group 6</title>
    <g id="Design" stroke="none" stroke-width="1" fill="none" fill-rule="evenodd">
        <g id="Group-6" fill="#211838">
            <path d="M24.8052,0.9185 C32.3092,0.6625 38.1742,3.2835 43.0972,8.2955 C48.1162,13.4065 53.1822,18.4725 58.2882,23.4965 C64.6732,29.7785 69.0742,29.7615 75.3362,23.5885 C80.5532,18.4445 85.8112,13.3435 91.0232,8.1955 C100.9712,-1.6275 116.1232,-1.7745 125.9732,7.8805 C135.7282,17.4415 135.8232,32.9585 126.0332,42.8175 C110.7742,58.1865 95.4192,73.4605 80.1072,88.7765 C79.1672,89.7175 78.1442,90.6015 77.3402,91.6495 C75.5662,93.9595 75.5722,96.3375 77.8042,98.3055 C79.8212,100.0835 82.1322,100.0005 84.1092,98.2175 C86.4552,96.1025 88.6132,93.7815 90.8612,91.5585 C101.0342,81.5075 116.3632,81.4225 126.1612,91.3595 C135.6792,101.0125 135.7082,116.2925 126.2272,125.9455 C116.4492,135.9015 101.1442,135.8425 90.9412,125.8185 C85.5982,120.5685 80.2472,115.3275 74.8892,110.0915 C69.2162,104.5445 64.6932,104.4475 58.9262,110.0015 C53.5282,115.2025 48.3202,120.5995 42.9922,125.8745 C33.1042,135.6655 17.6562,135.8355 8.0092,126.2875 C-1.8318,116.5475 -1.7468,101.0395 8.2892,90.9605 C23.3362,75.8485 38.4382,60.7925 53.5112,45.7085 C54.5702,44.6485 55.6702,43.6135 56.6082,42.4515 C58.4692,40.1485 58.3852,37.7475 56.1912,35.8005 C54.2092,34.0425 51.8722,34.0645 49.8832,35.8955 C47.3122,38.2605 44.9212,40.8195 42.3972,43.2355 C34.2672,51.0195 22.2522,52.3075 12.4722,46.4805 C3.1802,40.9425 -1.3958,29.2605 1.6232,18.7775 C4.7552,7.9025 13.9772,0.9265 24.8052,0.9185" id="Fill-4"></path>
        </g>
    </g>
</svg>